<?xml version="1.0" encoding="utf-8"?>
<!-- Generator: Adobe Illustrator 25.0.0, SVG Export Plug-In . SVG Version: 6.00 Build 0)  -->
<svg version="1.1" id="Layer_1" xmlns="http://www.w3.org/2000/svg" xmlns:xlink="http://www.w3.org/1999/xlink" x="0px" y="0px"
	 viewBox="0 0 62 62" style="enable-background:new 0 0 62 62;" xml:space="preserve">
<style type="text/css">
	.st0{fill:#FFFFFF;}
</style>
<g>
	<path class="st0" d="M17.14,36.84c-5.4-4.4-10.64-8.72-13.09-15.4c-1.8-4.88,0.59-8.92,5.78-9.38c3.16-0.28,6.4,0.17,9.57,0.51
		c1.17,0.13,1.55,0.02,2.05-1.13c1.26-2.94,2.46-6,4.32-8.56c2.99-4.12,6.68-4.24,10.58-0.95c0.35,0.3,0.91,0.51,1.36,0.5
		c2.51-0.06,4.14,0.95,4.85,3.09c0.61,1.85-0.14,3.96-1.8,5c-1.69,1.07-3.84,0.9-5.32-0.43c-1.56-1.4-1.83-3.52-0.73-5.71
		c0.1-0.21,0.2-0.42,0.28-0.59c-2.15-2.55-4.52-2.77-6.79-0.56c-2.8,2.71-4.11,6.25-5.11,9.89c-2.78,10.07-2.89,20.27-1.23,30.53
		c0.08,0.47,0.13,0.94,0.21,1.52c-0.57,0.2-1.11,0.39-1.91,0.68c-2.06-10.36-1.91-20.51,0.19-30.88c-4.11-1.03-8.17-1.91-12.26-0.3
		c-2.13,0.83-3.21,2.79-2.34,4.96c1.08,2.66,2.49,5.28,4.22,7.57c1.67,2.21,3.88,4.04,5.94,5.93C17.39,34.47,17.45,34.4,17.14,36.84
		z"/>
	<path class="st0" d="M20.68,49.3c-1.77,0.27-3.69,0.77-5.63,0.81c-2.24,0.05-4.56,0.02-6.71-0.52c-3.85-0.96-5.38-3.84-4.68-7.78
		c0.13-0.72,0.01-1.63-0.33-2.27c-1.01-1.89-0.93-4.04,0.42-5.49c1.28-1.38,3.55-1.77,5.28-0.89c1.78,0.9,2.68,2.94,2.21,5.01
		c-0.43,1.87-2.07,3.14-4.2,3.25c-0.29,0.02-0.59,0-0.86,0c-1.43,3.13-0.1,5.62,3.34,6.41c3.42,0.78,6.79,0.26,10.09-0.56
		C29.84,44.7,38.85,39.7,47,33.06c0.37-0.3,0.73-0.61,1.1-0.91c0.04-0.03,0.11-0.04,0.6-0.19c0.27,0.29,0.69,0.74,1.23,1.31
		C41.88,40.35,33,45.28,23.02,48.6c1.01,3.62,2.24,7,4.76,9.75c2.38,2.6,5.02,2.56,7.35-0.08c2.85-3.23,4.06-7.24,5.13-11.29
		c0.29-1.09,0.62-2.21,0.68-3.32c0.08-1.64,0.77-2.68,2.63-3.22c-0.27,1.64-0.47,3.17-0.77,4.69c-0.87,4.34-2.08,8.58-4.46,12.37
		c-4.08,6.51-9.88,6.54-13.84-0.06C22.99,54.92,21.97,52.1,20.68,49.3z"/>
	<path class="st0" d="M23.65,15.8c0.26-0.72,0.45-1.26,0.68-1.92c9.95,3.41,18.69,8.6,26.5,15.61c2.52-2.58,4.75-5.26,5.96-8.64
		c1.3-3.65-0.02-5.95-3.78-6.72c-4.24-0.87-8.29,0.18-12.33,1.27c-1.15,0.31-2.31,0.65-3.37,1.16c-1.45,0.69-2.58,0.34-3.81-0.84
		c6.38-2.45,12.64-4.74,19.51-3.73c5.28,0.78,7.58,4.63,5.71,9.63c-0.66,1.76-1.68,3.42-2.73,5c-1.02,1.53-2.29,2.88-3.44,4.3
		c1.53,2.03,3.29,3.94,4.52,6.14c1.07,1.93,1.89,4.14,2.18,6.32c0.4,3.01-1.46,5.14-4.53,6.26c-0.69,0.25-1.46,0.76-1.83,1.37
		c-1.17,1.9-2.98,2.88-4.91,2.41c-2.03-0.5-3.37-2.06-3.45-4.03c-0.08-2.09,1.08-3.83,2.95-4.41c2.11-0.66,4.02,0.07,5.23,1.99
		c0.16,0.25,0.28,0.52,0.41,0.76c3.53-0.62,4.87-2.77,3.8-6.2c-1.08-3.46-3.29-6.2-5.78-8.72c-7.41-7.52-16.26-12.8-26.11-16.49
		C24.64,16.19,24.26,16.04,23.65,15.8z"/>
	<path class="st0" d="M38.56,30.92c0.03,4.01-3.07,7.21-7.02,7.26c-4.02,0.05-7.35-3.21-7.34-7.18c0.01-3.9,3.25-7.15,7.18-7.17
		C35.35,23.81,38.53,26.94,38.56,30.92z"/>
</g>
</svg>
